<?xml version="1.0" standalone="no"?>
<!DOCTYPE svg PUBLIC "-//W3C//DTD SVG 20010904//EN"
 "http://www.w3.org/TR/2001/REC-SVG-20010904/DTD/svg10.dtd">
<svg version="1.0" xmlns="http://www.w3.org/2000/svg"
 width="700.000000pt" height="700.000000pt" viewBox="0 0 700.000000 700.000000"
 preserveAspectRatio="xMidYMid meet">
<metadata>
Created by potrace 1.14, written by Peter Selinger 2001-2017
</metadata>
<g transform="translate(0.000000,700.000000) scale(0.100000,-0.100000)"
fill="#000000" stroke="none">
<path d="M1556 6168 c-308 -30 -571 -233 -679 -523 -52 -142 -50 -54 -51
-2130 0 -1067 3 -1965 7 -1995 41 -341 297 -614 645 -690 84 -18 158 -19 2027
-18 1607 0 1953 3 2018 14 278 49 518 252 615 519 53 146 51 49 51 2156 l0
1957 -25 93 c-44 168 -115 290 -231 400 -118 113 -270 188 -437 215 -54 9
-3850 11 -3940 2z"/>
</g>
</svg>
